<svg width="500" height="135" viewBox="0 0 500 135" fill="none" xmlns="http://www.w3.org/2000/svg">
<path d="M48.2942 115.044C61.7788 115.044 72.7795 102.624 72.9569 86.4776C72.7795 70.3315 61.7788 57.9115 48.2942 57.9115C34.2773 57.9115 25.051 69.0895 25.051 86.4776C25.051 103.688 34.2773 115.044 48.2942 115.044ZM0.920652 86.4776C0.920652 58.4437 19.5507 38.5717 45.9877 38.5717C55.9237 38.5717 65.8597 43.0074 72.9569 51.8789V38.3943H97.0873V133.674L72.9569 133.851V120.899C65.8597 129.77 55.9237 134.206 45.9877 134.206C19.5507 134.206 0.920652 114.511 0.920652 86.4776ZM166.944 134.206C162.509 134.206 148.492 132.077 139.798 120.899V133.851H115.667V0.601841H139.798V51.7014C148.492 39.2814 162.509 38.2168 166.944 38.2168C193.559 38.2168 212.189 58.0889 212.189 86.3001C212.189 114.334 193.559 134.206 166.944 134.206ZM139.798 86.8324C139.798 102.801 150.976 115.399 164.993 115.399C179.01 115.399 188.058 104.22 188.058 86.8324C188.058 69.2669 179.01 58.0889 164.993 58.0889C150.976 58.0889 139.798 70.8638 139.798 86.8324ZM269.803 114.689C283.465 114.689 292.159 103.688 292.159 86.4776C292.159 69.0895 283.465 57.9115 269.803 57.9115C256.141 57.9115 247.447 69.0895 247.447 86.4776C247.447 103.688 256.141 114.689 269.803 114.689ZM223.317 86.4776C223.317 58.2663 242.479 38.3943 269.803 38.3943C297.128 38.3943 316.29 58.2663 316.29 86.4776C316.29 114.511 297.128 134.383 269.803 134.383C242.479 134.383 223.317 114.511 223.317 86.4776ZM355.437 90.0261C355.437 105.108 364.308 114.156 376.905 114.156C389.68 113.979 398.552 103.333 398.02 88.6067V38.3943H422.15V133.674H398.02V118.415C393.229 127.286 382.938 133.674 371.76 133.674C348.517 133.674 331.306 116.641 331.306 90.2036V38.3943H355.437V90.0261ZM482.831 134.206C464.555 134.206 451.248 121.076 451.248 102.091V60.5729H434.215V39.8137H451.248V12.3122H475.379V39.8137H499.332V60.5729H475.379V101.382C475.379 106.527 478.395 110.963 482.831 111.14C486.202 111.318 489.218 110.43 492.944 109.366L498.444 132.254C493.654 133.319 487.444 134.206 482.831 134.206Z" fill="#1B1B1B"/>
</svg>
