<svg width="559" height="141" viewBox="0 0 559 141" fill="none" xmlns="http://www.w3.org/2000/svg">
<path d="M73.4554 113.076L25.0172 42.9911V136.674H0.886837V3.60184H27.8561L73.4554 73.5089L119.055 3.60184H146.201V136.674H122.071V42.9911L73.4554 113.076ZM210.115 117.689C223.777 117.689 232.471 106.688 232.471 89.4776C232.471 72.0895 223.777 60.9115 210.115 60.9115C196.453 60.9115 187.759 72.0895 187.759 89.4776C187.759 106.688 196.453 117.689 210.115 117.689ZM163.628 89.4776C163.628 61.2663 182.791 41.3943 210.115 41.3943C237.439 41.3943 256.601 61.2663 256.601 89.4776C256.601 117.511 237.439 137.383 210.115 137.383C182.791 137.383 163.628 117.511 163.628 89.4776ZM314.209 117.689C327.871 117.689 336.565 106.688 336.565 89.4776C336.565 72.0895 327.871 60.9115 314.209 60.9115C300.547 60.9115 291.853 72.0895 291.853 89.4776C291.853 106.688 300.547 117.689 314.209 117.689ZM267.722 89.4776C267.722 61.2663 286.885 41.3943 314.209 41.3943C341.533 41.3943 360.695 61.2663 360.695 89.4776C360.695 117.511 341.533 137.383 314.209 137.383C286.885 137.383 267.722 117.511 267.722 89.4776ZM417.061 137.206C390.624 137.206 371.816 117.334 371.816 89.3001C371.816 60.9115 390.624 41.2168 417.061 41.2168C421.851 41.2168 435.691 42.6363 444.207 54.7014V3.60184H468.338V136.851H444.207V123.899C435.691 134.722 421.851 137.206 417.061 137.206ZM395.947 89.8324C395.947 107.22 404.996 118.399 419.19 118.399C433.029 118.399 444.207 105.801 444.207 89.8324C444.207 73.8638 433.029 61.0889 419.19 61.0889C404.996 61.0889 395.947 72.2669 395.947 89.8324ZM490.417 42.4588H514.547V136.674H490.417V42.4588ZM489.707 13.183C489.707 5.73099 495.03 0.230688 502.482 0.230688C509.934 0.230688 515.257 5.73099 515.257 13.183C515.257 20.635 509.934 25.9579 502.482 25.9579C495.03 25.9579 489.707 20.635 489.707 13.183ZM545.666 114.14C553.118 114.14 558.619 119.641 558.619 127.093C558.619 134.722 553.118 140.222 545.666 140.222C538.037 140.222 532.537 134.722 532.537 127.093C532.537 119.641 538.037 114.14 545.666 114.14Z" fill="#1B1B1B"/>
</svg>
